<?xml version="1.0" standalone="no"?>
<!DOCTYPE svg PUBLIC "-//W3C//DTD SVG 20010904//EN"
 "http://www.w3.org/TR/2001/REC-SVG-20010904/DTD/svg10.dtd">
<svg version="1.0" xmlns="http://www.w3.org/2000/svg"
 width="512.000000pt" height="512.000000pt" viewBox="0 0 512.000000 512.000000"
 preserveAspectRatio="xMidYMid meet">
<metadata>
Created by potrace 1.11, written by Peter Selinger 2001-2013
</metadata>
<g transform="translate(0.000000,512.000000) scale(0.100000,-0.100000)"
fill="#000000" stroke="none">
<path d="M2131 4987 c-7 -7 -33 -12 -60 -12 -37 -1 -55 -7 -87 -32 -21 -17
-61 -36 -89 -42 -27 -7 -64 -22 -81 -33 -33 -23 -79 -91 -90 -133 -6 -24 -6
-24 -27 -4 -24 22 -25 22 -64 9 -18 -7 -39 -7 -54 -2 -21 8 -28 4 -52 -29 -16
-22 -33 -39 -38 -39 -6 0 -8 -4 -4 -9 3 -5 -5 -13 -17 -16 -35 -11 -68 -46
-68 -72 0 -14 -6 -23 -15 -23 -18 0 -20 -21 -3 -38 9 -9 9 -12 -1 -12 -7 0 -9
-4 -6 -10 3 -5 -2 -10 -13 -10 -11 0 -19 -7 -19 -17 1 -58 -4 -78 -13 -63 -9
14 -16 -116 -11 -187 3 -28 -19 -41 -34 -20 -11 16 -13 15 -29 -1 -9 -10 -16
-30 -16 -43 0 -31 -38 -146 -59 -178 -9 -14 -16 -29 -16 -35 -1 -15 -15 -65
-26 -96 -4 -14 -11 -47 -15 -75 -3 -27 -8 -53 -10 -57 -7 -11 26 -58 40 -58 7
0 23 -11 36 -25 13 -14 29 -25 37 -25 18 0 17 -3 -13 -63 -31 -61 -34 -108
-15 -272 7 -60 11 -125 9 -144 -3 -31 -7 -35 -66 -56 -34 -13 -81 -36 -104
-51 -113 -78 -148 -150 -156 -319 -4 -83 -9 -113 -20 -121 -19 -14 -9 -44 17
-51 14 -3 23 -20 32 -56 7 -29 15 -59 19 -67 4 -8 19 -40 33 -70 55 -121 150
-190 261 -190 44 0 57 -3 46 -10 -11 -7 -5 -8 20 -4 43 8 86 33 124 72 26 28
27 33 16 67 -21 63 3 136 77 231 58 75 80 122 102 216 11 48 30 110 41 140 11
29 20 77 20 106 0 52 18 90 35 74 5 -4 5 -1 1 6 -6 9 -13 8 -33 -8 -28 -22
-43 -25 -43 -10 0 18 64 50 101 50 40 0 53 -11 63 -53 4 -15 10 -26 14 -23 4
2 8 -15 9 -38 1 -23 11 -66 22 -96 12 -30 21 -65 21 -77 0 -30 20 -73 49 -103
13 -14 20 -18 16 -10 -4 8 11 -5 34 -30 22 -25 41 -49 41 -54 0 -5 3 -7 6 -3
3 3 19 -10 36 -29 17 -19 35 -34 40 -34 6 0 19 -10 29 -21 16 -18 21 -20 34
-9 13 11 16 11 13 0 -2 -7 3 -15 11 -18 9 -3 11 0 6 8 -4 7 5 5 24 -5 18 -9
40 -14 50 -10 9 3 26 -2 37 -11 20 -16 19 -16 -26 -1 -3 1 -5 -2 -5 -8 0 -5 3
-9 8 -7 4 1 24 -6 45 -17 140 -70 294 -84 433 -38 122 40 241 126 300 219 28
43 33 61 37 129 l5 79 47 0 c32 0 54 6 69 19 22 19 53 18 79 -2 8 -7 12 -5 12
6 0 19 45 20 61 1 6 -8 8 -14 3 -14 -5 0 -2 -5 6 -11 11 -8 12 -12 3 -16 -7
-2 -13 -12 -13 -20 0 -13 3 -13 15 -3 8 7 15 19 15 26 0 8 5 14 11 14 6 0 8
-9 4 -20 -4 -11 -2 -20 4 -20 6 0 11 -9 11 -20 0 -11 5 -20 11 -20 5 0 7 -4 4
-10 -3 -5 -1 -19 5 -30 14 -26 -2 -50 -34 -50 -20 -1 -20 -1 -3 -11 14 -8 23
-7 35 4 15 14 17 13 17 -8 0 -13 -4 -21 -9 -18 -4 3 -5 -5 -1 -17 5 -15 3 -20
-3 -16 -6 3 -13 2 -16 -3 -4 -5 -2 -12 2 -15 10 -6 9 -36 -2 -54 -4 -7 -1 -15
8 -18 9 -3 16 -14 16 -24 0 -11 5 -22 11 -26 6 -3 9 -15 6 -25 -3 -11 -1 -19
4 -19 5 0 16 -14 25 -32 16 -30 17 -31 30 -13 17 22 44 29 44 10 0 -7 -7 -18
-16 -26 -10 -8 -13 -21 -9 -36 3 -13 1 -23 -5 -23 -5 0 -10 4 -10 10 0 5 -7 7
-15 3 -9 -3 -22 2 -30 13 -7 11 -17 16 -21 11 -4 -4 -2 -13 4 -19 7 -7 12 -20
12 -30 0 -10 5 -18 10 -18 6 0 10 4 10 9 0 6 9 9 19 8 15 -1 17 -4 9 -14 -6
-7 -18 -13 -26 -13 -12 0 -13 -3 -4 -12 7 -7 12 -22 12 -34 0 -23 22 -48 33
-37 4 3 7 -3 7 -15 0 -24 -16 -30 -23 -9 -2 6 -4 -10 -4 -38 -1 -46 0 -48 12
-26 17 33 45 36 45 6 0 -12 -7 -28 -15 -35 -8 -7 -15 -25 -15 -41 0 -15 -5
-31 -11 -35 -8 -5 -10 6 -7 35 2 30 0 40 -9 37 -6 -3 -16 7 -22 22 -6 17 -10
20 -10 10 -1 -12 -6 -15 -17 -11 -8 3 -13 11 -10 18 3 8 -6 26 -20 40 -14 15
-23 33 -20 40 3 9 -2 11 -17 8 -18 -4 -19 -3 -7 6 13 9 13 11 -2 11 -10 0 -18
-4 -18 -10 0 -5 -8 -10 -19 -10 -14 0 -17 -6 -13 -25 5 -27 22 -35 22 -10 0
19 9 19 35 -1 16 -12 17 -16 6 -23 -8 -5 -11 -16 -6 -30 5 -15 2 -21 -9 -21
-14 0 -18 6 -15 26 1 7 -22 24 -33 24 -4 0 -3 -11 2 -25 6 -15 6 -26 0 -30
-17 -10 -12 -75 5 -75 18 0 19 -12 3 -28 -7 -7 -8 -12 -3 -12 4 0 0 -9 -10
-20 -10 -11 -22 -17 -26 -14 -5 3 -9 -2 -9 -11 0 -12 4 -14 19 -6 10 6 21 7
25 4 3 -3 6 1 6 11 0 9 4 15 10 11 5 -3 6 -13 3 -23 -6 -15 -5 -15 10 -3 10 8
21 11 24 7 4 -4 1 -12 -7 -17 -11 -8 -8 -8 10 -3 l25 7 -20 -22 c-16 -19 -17
-24 -5 -31 10 -7 11 -10 3 -10 -7 0 -15 -11 -19 -25 -3 -14 -15 -30 -25 -36
-11 -5 -19 -15 -19 -21 0 -7 5 -6 15 2 12 10 15 9 15 -4 0 -10 6 -23 13 -31
12 -11 18 -9 40 11 34 32 35 13 1 -21 -14 -14 -22 -30 -19 -35 4 -6 -5 -20
-19 -31 -32 -25 -34 -44 -3 -28 12 7 24 13 27 13 3 1 4 4 3 9 -2 4 2 7 7 7 6
0 10 7 10 15 0 8 5 15 10 15 6 0 10 5 10 11 0 5 -6 7 -12 3 -7 -4 -2 5 11 19
32 36 37 34 37 -10 -1 -26 -6 -40 -18 -45 -10 -4 -18 -14 -18 -23 0 -8 -3 -15
-7 -15 -17 0 -7 -50 10 -56 11 -3 16 -12 13 -22 -3 -9 -8 -29 -12 -44 -3 -16
-10 -25 -15 -22 -5 3 -9 -3 -9 -12 0 -22 -33 -93 -43 -94 -4 0 -3 9 3 20 8 15
7 18 -2 15 -7 -3 -22 -22 -33 -43 -17 -30 -26 -37 -51 -37 -45 -1 -65 -20 -54
-51 10 -24 7 -41 -13 -81 -15 -32 -27 -28 -27 8 0 17 -4 28 -10 24 -5 -3 -7
-20 -3 -38 5 -29 4 -30 -9 -14 -9 12 -20 16 -32 11 -10 -4 -13 -10 -8 -13 12
-8 0 -82 -13 -82 -5 1 -10 9 -11 18 -2 41 -14 59 -39 59 -13 0 -27 -6 -30 -14
-4 -11 1 -13 20 -8 20 5 25 3 25 -12 0 -19 -31 -62 -45 -62 -4 0 -4 7 -1 16 4
10 1 14 -6 12 -7 -3 -13 -11 -14 -19 -3 -43 -5 -49 -15 -49 -8 0 -10 19 -6 61
4 52 3 60 -11 57 -9 -2 -21 -13 -28 -25 -8 -17 -13 -20 -22 -11 -7 7 -12 8
-12 4 0 -5 -7 -3 -15 4 -12 10 -15 10 -15 -3 0 -23 -18 -31 -36 -16 -13 11
-15 8 -12 -17 2 -19 -1 -28 -9 -27 -7 2 -10 -4 -7 -12 4 -9 -3 -16 -20 -21
-14 -3 -23 -10 -20 -15 3 -5 0 -9 -6 -9 -6 0 -21 -12 -34 -27 -24 -27 -46 -25
-46 5 -1 16 -1 16 -11 -1 -5 -9 -22 -17 -36 -17 -21 0 -24 -2 -13 -15 10 -12
10 -15 -4 -15 -19 0 -22 -20 -3 -21 6 0 -1 -7 -18 -14 -17 -7 -34 -9 -40 -5
-6 5 -17 5 -25 0 -18 -11 -30 -4 -30 21 0 10 -7 19 -15 19 -8 0 -15 5 -15 12
0 6 -2 9 -5 6 -3 -2 2 -19 11 -37 9 -18 14 -35 11 -37 -3 -3 -13 10 -22 30
-19 39 -30 45 -39 20 -4 -10 -2 -13 6 -8 8 5 9 2 3 -12 -4 -10 -12 -32 -19
-49 -6 -16 -11 -31 -12 -33 -7 -13 -42 23 -47 48 -6 27 -37 45 -37 20 0 -22
-28 -8 -35 18 l-7 27 -12 -28 c-6 -16 -16 -29 -21 -28 -6 1 -11 -3 -11 -9 -1
-5 -2 -14 -3 -20 0 -5 -9 -10 -18 -10 -17 -1 -17 -1 0 -11 9 -5 17 -17 17 -26
0 -11 -6 -14 -26 -9 -22 6 -27 2 -37 -24 -13 -35 -51 -41 -73 -12 -12 15 -12
14 -7 -8 3 -14 2 -22 -2 -18 -4 4 -14 0 -21 -10 -8 -10 -13 -12 -14 -4 0 17
-50 16 -50 -2 0 -16 -61 -17 -72 -1 -5 6 -11 5 -17 -4 -7 -11 -10 -10 -18 3
-5 10 -17 18 -27 20 -9 1 -26 17 -37 35 -16 27 -22 31 -34 21 -11 -9 -15 -9
-15 -1 0 6 -7 11 -16 11 -10 0 -13 6 -10 18 4 12 -1 21 -17 27 -16 8 -21 18
-20 38 2 23 -1 26 -12 17 -7 -6 -25 -8 -39 -4 -25 6 -30 22 -11 37 6 4 6 10
-2 15 -7 4 -14 19 -17 32 -2 14 -9 24 -15 23 -6 -2 -11 2 -11 8 0 6 -7 17 -15
25 -13 14 -15 13 -15 -5 0 -32 -19 -25 -35 13 -8 19 -20 38 -26 41 -5 4 -8 13
-5 21 3 7 -4 20 -16 28 -11 8 -17 19 -13 25 3 6 1 11 -5 11 -10 0 -33 43 -34
65 -1 5 -13 22 -28 38 -16 15 -28 35 -28 44 0 13 -3 13 -15 3 -13 -11 -15 -9
-13 11 2 17 -2 24 -14 23 -12 -1 -20 12 -28 47 -7 27 -16 49 -20 49 -16 0 -22
-42 -9 -72 10 -25 10 -31 -2 -39 -24 -15 -46 -10 -62 15 -11 17 -32 27 -79 36
-35 8 -67 12 -73 11 -5 -2 -39 -4 -75 -6 -72 -4 -105 -9 -136 -19 -14 -4 -32
1 -55 16 -19 13 -47 29 -62 36 -24 10 -29 10 -34 -4 -3 -9 -1 -25 5 -35 7 -10
12 -26 12 -34 0 -43 51 -97 62 -65 4 14 63 29 78 20 15 -10 -4 -50 -24 -50
-19 0 -29 -32 -14 -42 7 -4 23 -6 36 -3 20 5 23 3 17 -15 -4 -14 -2 -20 8 -20
20 0 29 -27 11 -34 -12 -5 -12 -9 -2 -26 10 -16 19 -19 47 -14 19 4 44 7 55 8
14 1 21 8 21 21 1 56 36 59 60 6 23 -53 14 -95 -19 -87 -16 4 -29 -1 -44 -19
-12 -14 -26 -25 -32 -25 -21 0 -8 -17 25 -33 41 -19 43 -34 13 -73 -29 -38
-38 -44 -70 -44 -21 0 -28 -6 -33 -29 -14 -66 -83 -79 -104 -19 -10 27 -8 33
21 60 l31 29 -20 27 c-15 20 -30 28 -61 30 -36 3 -43 7 -48 30 -12 53 -14 57
-36 67 -16 7 -24 20 -26 41 -2 23 -9 34 -24 37 -18 5 -19 9 -9 21 11 12 10 21
0 46 -8 16 -17 30 -20 30 -13 0 -20 -52 -8 -66 6 -7 8 -25 5 -39 -6 -25 21
-65 45 -65 8 0 8 -4 1 -13 -8 -10 -5 -20 13 -42 44 -50 30 -65 -58 -65 -60 0
-71 -6 -82 -38 -10 -32 19 -64 51 -56 20 5 24 2 24 -19 0 -20 -6 -26 -31 -31
-19 -4 -38 -1 -46 6 -11 9 -16 9 -23 -2 -10 -16 -40 -6 -40 14 0 14 -37 49
-76 72 -15 9 -16 14 -7 25 8 11 8 23 -2 53 -14 40 -45 80 -45 58 0 -7 -11 -12
-25 -12 -15 0 -23 5 -20 13 6 14 -66 40 -89 31 -21 -8 -20 -16 4 -37 12 -10
18 -22 15 -27 -6 -10 49 -42 68 -38 42 8 89 -40 66 -68 -17 -21 -46 -17 -52 7
-5 19 -11 21 -45 17 -31 -5 -43 -2 -56 13 -9 11 -22 19 -30 19 -10 0 -14 9
-12 28 4 36 -9 43 -52 25 -19 -8 -40 -12 -47 -9 -7 2 -15 -5 -18 -16 -5 -19
-11 -20 -51 -15 l-46 7 0 -141 0 -140 22 15 c33 23 51 20 70 -15 16 -27 21
-29 54 -23 40 7 59 -8 44 -37 -13 -24 -77 -34 -99 -16 -9 8 -33 17 -54 20
l-37 6 0 -38 c0 -20 6 -43 12 -50 10 -11 10 -14 1 -18 -10 -4 -13 -56 -13
-215 0 -182 2 -212 16 -223 15 -10 15 -13 -1 -28 -15 -16 145 -17 2544 -17
l2561 0 0 139 c0 102 -3 141 -12 145 -10 5 -10 7 -1 12 16 7 17 86 2 101 -8 8
-18 8 -35 1 -20 -9 -29 -8 -52 9 l-28 21 -21 -24 c-16 -18 -29 -23 -59 -20
-42 4 -53 16 -29 36 14 12 21 40 10 40 -3 0 -17 -11 -32 -24 -15 -14 -33 -22
-44 -19 -12 3 -19 0 -19 -8 -1 -8 -8 -23 -18 -35 -15 -18 -30 -21 -107 -22
-50 -1 -105 -4 -122 -6 -34 -6 -44 9 -22 31 10 10 16 90 6 99 -3 3 -18 -22
-33 -55 -16 -33 -32 -60 -37 -60 -4 -1 -12 11 -17 25 -7 18 -6 33 5 54 22 42
19 50 -19 50 -36 0 -50 -17 -35 -41 10 -16 12 -63 3 -72 -4 -3 -16 8 -28 26
-24 35 -57 45 -91 27 -17 -9 -90 -9 -115 0 -11 5 -56 -3 -73 -12 -28 -15 -9
-29 36 -27 65 2 125 -20 112 -41 -3 -4 1 -8 8 -7 36 1 47 -4 47 -24 0 -24 27
-54 49 -54 26 0 26 -59 0 -94 -21 -29 -23 -29 -50 -16 -27 15 -59 11 -59 -6 0
-21 33 -46 54 -41 33 8 10 -10 -31 -24 -34 -12 -55 -11 -123 2 -19 4 -22 3
-13 -7 14 -14 -6 -39 -31 -39 -21 0 -21 26 0 34 13 5 14 9 5 20 -16 19 4 31
45 27 39 -3 48 9 32 44 -9 21 -16 25 -36 20 -17 -4 -30 0 -44 14 -30 33 -64
26 -87 -16 -10 -19 -9 -23 4 -23 9 0 15 -6 12 -12 -2 -7 -12 -12 -22 -11 -14
1 -17 -5 -12 -35 3 -24 0 -42 -9 -50 -17 -15 -20 -15 -71 4 -39 15 -42 18 -26
31 16 12 15 13 -12 7 -16 -4 -31 -11 -33 -16 -2 -4 -11 -8 -20 -8 -32 0 -1
-12 50 -20 43 -6 46 -8 18 -9 -19 -1 -60 -8 -90 -16 -47 -13 -214 -15 -1129
-15 l-1075 0 26 28 c14 15 43 54 65 87 23 33 54 77 71 98 17 21 43 70 58 110
39 105 72 167 88 167 8 0 17 6 19 13 4 9 6 9 6 0 1 -7 10 -13 21 -13 13 0 22
-9 26 -25 3 -14 11 -25 16 -25 5 0 8 -5 6 -12 -3 -7 12 -20 31 -30 20 -10 51
-32 70 -48 23 -21 40 -28 56 -24 16 4 26 -1 39 -21 9 -14 21 -23 26 -20 5 3
19 -9 31 -27 12 -18 24 -35 26 -37 2 -3 10 4 18 15 8 10 15 14 15 7 0 -7 7
-10 16 -6 8 3 25 -4 39 -17 13 -12 29 -19 35 -15 13 8 106 -30 128 -52 8 -8
21 -12 29 -8 11 3 13 1 9 -10 -4 -11 1 -15 18 -15 16 0 26 7 30 22 l7 23 9
-22 c12 -28 26 -29 40 -3 6 11 15 18 21 15 5 -4 9 -1 9 4 0 6 3 10 8 10 19 -3
23 2 12 16 -9 10 -9 15 -1 15 6 0 11 -4 11 -10 0 -5 11 -10 25 -10 14 0 25 5
25 11 0 6 7 9 15 5 8 -3 15 0 15 6 0 7 5 6 15 -2 13 -10 15 -9 15 8 0 13 5 19
13 16 8 -3 13 4 14 17 1 12 6 25 11 28 6 3 29 47 51 96 87 187 226 424 310
527 6 7 29 35 51 61 22 27 40 52 40 56 0 17 190 200 235 226 28 16 69 46 93
66 38 33 162 89 197 89 8 0 32 24 54 53 22 30 45 60 53 68 33 35 71 127 78
190 5 42 20 92 42 141 52 111 53 114 23 134 -22 14 -25 23 -25 78 -1 33 -5 81
-11 106 -6 25 -13 61 -18 80 -7 34 -7 33 -15 -25 -4 -33 -11 -113 -15 -179 -5
-94 -10 -121 -24 -131 -9 -6 -14 -15 -10 -18 3 -4 -3 -9 -13 -13 -10 -3 -26
-9 -34 -12 -25 -9 -64 -9 -77 0 -7 6 -16 7 -22 4 -14 -9 -32 38 -35 89 0 17
-5 33 -10 37 -5 3 3 17 17 31 25 23 39 76 17 62 -5 -3 -11 4 -11 17 -1 13 -3
37 -5 54 -4 34 32 84 61 84 27 0 16 29 -30 73 -27 26 -47 57 -51 76 -4 17 -10
31 -14 31 -4 0 -10 9 -13 21 -4 15 1 22 19 30 33 12 37 11 28 -4 -5 -9 -3 -9
7 1 12 11 12 14 0 21 -10 7 -10 10 -1 13 20 6 -5 45 -35 52 -15 4 -25 13 -25
24 0 31 66 147 90 159 36 18 44 8 94 -122 l15 -40 0 48 c1 59 18 62 26 5 8
-56 8 -78 0 -108 -6 -22 -5 -23 7 -8 8 9 15 38 16 65 2 46 -19 170 -33 192 -3
6 -8 30 -10 52 -4 39 -3 40 15 24 11 -10 20 -12 24 -6 9 14 10 298 1 356 -8
53 -45 148 -89 229 -14 27 -24 51 -21 54 3 3 5 -1 5 -8 0 -7 3 -11 6 -8 8 9
-55 128 -71 134 -7 3 -19 20 -25 37 -8 25 -8 29 2 19 6 -6 20 -12 29 -12 13 0
18 13 23 61 l7 61 -61 67 c-33 36 -67 73 -74 81 -7 8 -22 24 -34 35 -27 26
-72 75 -72 79 0 2 -21 34 -46 72 -25 38 -41 70 -36 72 15 5 4 32 -25 63 -14
15 -21 32 -18 41 4 11 -1 18 -14 23 -12 3 -21 11 -21 17 0 5 7 8 15 5 8 -4 17
-2 20 3 3 5 -10 12 -30 16 -19 3 -35 10 -35 15 0 5 -25 20 -55 34 -56 25 -71
37 -35 28 25 -7 25 2 2 25 -13 13 -41 21 -90 25 -52 5 -78 13 -92 27 -11 11
-18 20 -15 20 3 0 -10 16 -30 37 -34 35 -46 75 -25 88 15 9 12 25 -4 25 -8 0
-17 -7 -20 -16 -4 -11 -10 -13 -19 -6 -20 15 -47 10 -47 -9 0 -10 -4 -21 -10
-24 -5 -3 -10 1 -10 10 0 9 -6 15 -14 13 -8 -2 -25 9 -39 25 -15 15 -36 28
-49 28 -13 1 -36 3 -53 5 -16 2 -46 5 -65 7 -19 2 -45 9 -57 15 -12 7 -27 12
-33 12 -6 0 -18 7 -27 15 -14 14 -18 14 -41 -1 -32 -21 -111 -13 -151 15 -15
11 -41 23 -58 25 -16 3 -46 13 -66 21 -34 14 -37 14 -38 -2 0 -15 -2 -15 -10
3 -6 11 -30 31 -55 44 -48 27 -55 49 -28 88 9 14 11 22 4 22 -6 0 -9 8 -6 18
5 16 1 19 -27 20 -19 1 -39 -4 -46 -11z m-64 -54 c-4 -3 -2 -12 3 -18 14 -17
-10 -36 -37 -29 -22 6 -22 6 4 30 22 21 48 36 30 17z m-1 -129 c-8 -39 -30
-45 -47 -11 -6 12 -8 19 -4 15 5 -5 17 7 28 25 23 37 32 24 23 -29z m-41 -111
c-10 -15 -20 -22 -22 -16 -4 11 28 53 36 47 2 -2 -4 -16 -14 -31z m-355 19 c0
-4 -10 -13 -22 -21 -23 -14 -23 -14 -4 8 20 22 26 25 26 13z m90 -66 c-7 -7
-10 -4 -10 10 0 14 -5 11 -20 -13 -11 -18 -21 -33 -22 -33 -2 0 -2 20 0 44 3
33 7 43 18 39 8 -3 14 1 14 8 0 8 7 1 15 -15 11 -20 12 -33 5 -40z m-480 -471
c0 -8 -4 -15 -10 -15 -5 0 -7 7 -4 15 4 8 8 15 10 15 2 0 4 -7 4 -15z m1100
-105 c13 -8 13 -10 -2 -10 -9 0 -20 5 -23 10 -8 13 5 13 25 0z m-394 -15 c19
-4 34 -3 38 4 4 6 13 11 19 11 8 0 8 -3 -2 -9 -22 -14 1 -18 67 -12 35 4 65 3
68 -1 3 -4 11 -5 19 -1 9 3 26 -2 40 -11 15 -10 26 -12 30 -6 3 6 13 10 21 10
8 0 13 -4 10 -9 -3 -5 3 -11 14 -14 11 -3 18 -1 14 4 -3 5 -1 9 5 9 5 0 13 -5
17 -11 3 -6 17 -9 30 -6 13 2 25 -1 27 -7 3 -6 8 -7 13 -2 5 5 4 11 -3 13 -15
6 -17 29 -3 38 5 3 19 1 31 -6 17 -9 19 -13 8 -20 -9 -6 -10 -9 -2 -9 6 0 14
4 17 9 9 14 108 -10 102 -25 -3 -7 2 -18 10 -24 11 -10 14 -9 14 9 0 11 5 21
10 21 6 0 10 -7 10 -16 0 -12 6 -15 23 -11 12 4 29 2 37 -3 11 -7 3 -10 -27
-10 -24 0 -43 -4 -43 -10 0 -5 10 -10 23 -10 13 0 28 -5 35 -12 9 -9 15 -9 24
0 13 13 29 16 27 5 -3 -19 2 -33 12 -33 5 0 8 4 4 9 -3 5 -1 12 4 15 10 7 23
-19 14 -28 -4 -3 -20 -6 -37 -7 l-31 -1 30 -9 c17 -5 38 -6 49 -3 11 4 16 2
12 -4 -3 -6 -2 -13 3 -16 5 -4 12 -2 15 3 4 5 24 1 46 -10 29 -14 40 -26 40
-42 0 -12 7 -33 16 -45 9 -13 14 -28 11 -35 -2 -7 -1 -21 4 -32 6 -15 8 -11 9
20 1 22 4 32 7 22 2 -9 18 -43 34 -75 17 -31 28 -47 24 -36 -4 17 -1 21 16 20
17 -1 36 -18 45 -44 1 -1 23 -4 50 -7 36 -4 54 -11 66 -27 9 -13 23 -30 30
-38 13 -15 19 -59 8 -58 -19 2 -21 -5 -5 -22 15 -17 16 -20 3 -15 -9 4 -19 2
-22 -3 -3 -6 1 -13 10 -16 12 -5 14 -9 5 -20 -13 -15 -11 -42 6 -71 9 -15 8
-22 -5 -31 -14 -10 -13 -16 9 -55 22 -40 24 -48 13 -84 -7 -22 -13 -32 -13
-22 -1 11 -10 21 -21 24 -10 3 -22 14 -25 24 -4 10 -11 19 -16 19 -6 0 -8 8
-4 19 5 16 1 18 -35 14 -36 -4 -40 -3 -40 18 0 18 -3 20 -12 11 -8 -8 -16 -6
-30 11 -11 12 -28 23 -39 23 -28 2 -23 -9 14 -26 23 -11 32 -22 33 -40 0 -14
4 -44 8 -67 8 -46 20 -52 59 -31 20 10 21 10 8 -5 -7 -10 -21 -17 -30 -17 -10
0 -17 -9 -17 -25 l-2 -25 18 23 c10 12 22 18 26 14 5 -4 4 -11 -2 -15 -5 -4
-10 -19 -9 -34 0 -20 3 -24 13 -16 8 7 17 7 27 -2 13 -11 13 -15 3 -21 -7 -5
-18 -9 -25 -9 -16 0 -83 61 -83 77 0 7 -4 13 -10 13 -5 0 -32 23 -58 50 -31
32 -54 48 -64 45 -17 -7 -53 39 -43 55 8 13 -37 55 -94 88 -29 17 -60 26 -90
27 -26 1 -52 5 -59 9 -63 38 -353 0 -516 -68 -21 -9 -49 -18 -61 -20 -13 -2
-67 -16 -121 -31 -413 -113 -646 -166 -661 -152 -12 13 118 395 154 450 15 23
29 49 31 57 6 30 25 70 33 70 5 0 9 7 9 15 0 8 9 20 20 27 11 7 20 20 20 29 0
9 6 19 14 22 8 3 22 22 31 41 9 20 38 53 64 75 102 89 155 131 164 131 4 0 15
7 23 15 9 8 24 15 35 15 10 0 19 5 19 10 0 10 78 7 136 -5z m-766 -617 c0 -5
-4 -8 -10 -8 -5 0 -10 10 -10 23 0 18 2 19 10 7 5 -8 10 -18 10 -22z m690
-227 c-25 -21 -56 -60 -69 -87 -30 -62 -28 -59 -46 -44 -24 20 -109 15 -155
-9 -45 -23 -54 -26 -45 -11 3 6 -1 10 -9 10 -9 0 -16 5 -16 11 0 17 24 36 40
31 10 -3 12 -1 5 6 -7 7 -26 8 -59 1 -45 -8 -66 -6 -55 6 3 2 72 22 154 44 83
23 179 49 215 60 90 26 91 26 40 -18z m1210 -41 c0 -5 -4 -10 -10 -10 -5 0
-10 5 -10 10 0 6 5 10 10 10 6 0 10 -4 10 -10z m-540 -18 c0 -4 12 -13 28 -20
48 -22 73 -46 66 -65 -5 -13 -19 -17 -64 -17 -33 0 -62 -5 -65 -10 -4 -7 -12
-7 -25 0 -10 5 -42 10 -70 10 -47 0 -51 2 -48 23 5 37 42 61 118 76 62 12 60
12 60 3z m660 -12 c0 -11 -2 -20 -5 -20 -2 0 -9 9 -15 20 -9 16 -8 20 5 20 8
0 15 -9 15 -20z m-1763 -26 c-3 -3 -12 -4 -19 -1 -8 3 -5 6 6 6 11 1 17 -2 13
-5z m-434 -154 c-3 -11 -9 -17 -14 -14 -14 8 -10 34 5 34 9 0 12 -7 9 -20z
m2072 9 c61 -17 100 -59 55 -59 -11 0 -20 -7 -20 -15 0 -8 -4 -15 -10 -15 -5
0 -10 5 -10 11 0 8 -4 8 -14 0 -11 -9 -15 -3 -20 34 -4 25 -11 43 -16 40 -5
-3 -11 -1 -15 5 -8 13 0 13 50 -1z m-2095 -34 c0 -2 -9 -20 -21 -39 -21 -36
-43 -46 -51 -23 -8 19 2 37 20 37 8 0 12 3 9 7 -11 10 13 32 29 26 8 -3 14 -7
14 -8z m2185 -35 c-3 -5 -14 -10 -23 -9 -14 0 -13 2 3 9 27 11 27 11 20 0z
m645 -52 c0 -20 -45 -42 -67 -33 -17 6 -13 40 4 40 6 0 14 3 18 7 14 13 45 4
45 -14z m-320 -443 c0 -8 -4 -15 -10 -15 -5 0 -7 7 -4 15 4 8 8 15 10 15 2 0
4 -7 4 -15z m-1035 -15 c3 -5 -3 -10 -14 -10 -12 0 -21 5 -21 10 0 6 6 10 14
10 8 0 18 -4 21 -10z m1100 -110 c3 -5 1 -10 -4 -10 -6 0 -11 5 -11 10 0 6 2
10 4 10 3 0 8 -4 11 -10z m-61 -93 c6 -24 5 -26 -7 -16 -8 8 -12 22 -9 32 6
22 7 20 16 -16z m36 -18 c0 -11 -4 -18 -10 -14 -5 3 -7 12 -3 20 7 21 13 19
13 -6z m-215 -178 c3 -5 1 -12 -5 -16 -5 -3 -10 1 -10 9 0 18 6 21 15 7z m155
-62 c0 -20 -5 -29 -16 -29 -11 0 -14 5 -10 16 3 9 6 25 6 35 0 11 5 17 10 14
6 -3 10 -19 10 -36z m-100 11 c0 -5 -4 -10 -10 -10 -5 0 -10 5 -10 10 0 6 5
10 10 10 6 0 10 -4 10 -10z m60 1 c0 -6 -8 -16 -18 -23 -11 -7 -21 -20 -25
-28 -4 -12 -6 -11 -6 3 -1 9 7 26 17 36 19 21 32 26 32 12z m206 -16 c-2 -7 0
-17 6 -23 8 -8 7 -13 -5 -18 -9 -3 -14 -10 -11 -15 3 -5 -4 -9 -15 -9 -16 0
-19 5 -15 27 3 15 8 31 11 36 3 6 1 7 -5 3 -7 -4 -12 -1 -12 7 0 10 8 13 26 9
15 -3 23 -10 20 -17z m-190 -53 c-4 -3 -11 0 -16 8 -15 24 -11 33 6 15 9 -9
13 -19 10 -23z m-12 -18 c8 -3 12 -12 10 -19 -4 -9 1 -13 15 -12 12 1 21 7 21
14 0 7 5 13 10 13 6 0 10 -7 10 -16 0 -8 5 -12 10 -9 6 3 10 1 10 -4 0 -6 -8
-11 -17 -11 -14 0 -18 -10 -20 -46 -2 -51 -10 -66 -22 -45 -5 7 -13 11 -19 7
-11 -7 -25 21 -16 35 3 5 0 9 -5 9 -6 0 -11 -5 -11 -12 0 -15 -30 -48 -44 -48
-6 0 -5 5 2 12 7 7 12 20 12 29 0 10 6 19 12 21 9 3 8 9 -5 22 -21 21 -21 25
0 48 17 20 23 21 47 12z m407 -127 c-1 -12 -15 -9 -19 4 -3 6 1 10 8 8 6 -3
11 -8 11 -12z m-321 -17 c0 -5 -5 -10 -11 -10 -5 0 -7 5 -4 10 3 6 8 10 11 10
2 0 4 -4 4 -10z m357 -22 c-3 -8 -6 -5 -6 6 -1 11 2 17 5 13 3 -3 4 -12 1 -19z
m-47 -23 c0 -14 -2 -25 -4 -25 -2 0 -6 11 -8 25 -3 14 -1 25 3 25 5 0 9 -11 9
-25z m49 -2 c0 -5 -4 -17 -9 -28 -8 -18 -9 -17 -9 8 -1 15 4 27 9 27 6 0 10
-3 9 -7z m-439 -73 c0 -5 -5 -10 -11 -10 -5 0 -7 5 -4 10 3 6 8 10 11 10 2 0
4 -4 4 -10z m7 -112 c-3 -8 -6 -5 -6 6 -1 11 2 17 5 13 3 -3 4 -12 1 -19z
m-2149 -300 c-6 -18 -18 -60 -27 -93 -9 -33 -26 -77 -39 -98 -12 -21 -22 -43
-22 -48 0 -12 -28 -57 -53 -86 -11 -12 -20 -31 -21 -41 -1 -24 -61 -92 -81
-92 -8 0 -15 -9 -15 -20 0 -11 -4 -20 -10 -20 -19 0 -10 46 13 67 48 43 65 73
57 101 -4 15 -12 26 -19 25 -6 -2 -11 6 -11 17 0 15 7 20 25 20 15 0 30 9 39
23 18 29 30 87 18 87 -5 0 -9 10 -8 23 1 19 6 22 33 19 29 -3 34 1 47 32 8 20
26 47 40 61 15 14 26 32 26 40 0 8 4 15 9 15 6 0 5 -13 -1 -32z m1932 -44 c0
-14 -4 -23 -10 -19 -5 3 -10 15 -10 26 0 10 5 19 10 19 6 0 10 -12 10 -26z
m-173 -131 c-3 -10 -5 -4 -5 12 0 17 2 24 5 18 2 -7 2 -21 0 -30z m-1579 -79
c-3 -57 -9 -79 -31 -112 -15 -23 -32 -42 -37 -42 -16 0 -12 104 5 126 8 10 15
36 15 57 0 21 5 48 11 59 11 21 12 21 26 2 10 -13 14 -39 11 -90z m1352 46 c0
-5 -4 -10 -9 -10 -6 0 -13 5 -16 10 -3 6 1 10 9 10 9 0 16 -4 16 -10z m-67
-55 c-3 -9 -8 -14 -10 -11 -3 3 -2 9 2 15 9 16 15 13 8 -4z m37 11 c0 -3 -4
-8 -10 -11 -5 -3 -10 -1 -10 4 0 6 5 11 10 11 6 0 10 -2 10 -4z m56 -23 c-10
-10 -19 5 -10 18 6 11 8 11 12 0 2 -7 1 -15 -2 -18z m-2719 -20 c3 -8 1 -19
-6 -26 -17 -17 -14 -25 17 -41 19 -10 32 -11 43 -3 23 14 49 2 49 -23 0 -19
-5 -21 -37 -18 -35 3 -38 1 -41 -23 -2 -20 2 -28 20 -33 13 -4 18 -9 12 -12
-7 -3 -28 4 -48 16 -20 11 -43 20 -51 20 -24 0 -28 21 -10 61 13 28 15 42 7
52 -18 21 -4 56 20 49 11 -2 22 -11 25 -19z m661 -74 c3 -18 -38 -31 -59 -18
-10 6 -10 11 1 24 16 20 54 16 58 -6z m-420 -91 c-3 -13 -7 -29 -9 -36 -2 -8
10 -18 31 -25 49 -17 51 -42 3 -57 -46 -15 -73 -37 -67 -55 6 -15 -32 -45 -58
-45 -9 0 -33 -9 -52 -21 l-35 -20 -11 20 c-6 11 -8 32 -4 47 4 15 2 29 -4 33
-7 4 -8 12 -2 21 6 10 27 14 64 14 65 0 78 16 41 48 l-25 22 20 21 c12 12 23
40 26 61 10 69 12 70 50 31 27 -27 35 -42 32 -59z m97 -13 c0 -37 -30 -48 -37
-13 -6 33 1 50 21 46 10 -2 16 -13 16 -33z m229 12 c10 11 26 -18 26 -48 0
-25 -2 -26 -55 -25 -62 0 -68 11 -38 64 16 27 19 29 38 16 12 -8 25 -11 29 -7z
m1323 -69 c-3 -8 -6 -5 -6 6 -1 11 2 17 5 13 3 -3 4 -12 1 -19z m-973 -31 c21
-60 -37 -117 -71 -71 -20 28 -15 56 14 81 32 28 45 25 57 -10z m398 15 c9 -9
9 -12 0 -12 -16 0 -32 -62 -19 -77 12 -16 0 -95 -18 -119 -8 -11 -15 -31 -15
-45 0 -32 -9 -42 -27 -28 -20 18 -17 127 6 172 16 31 17 43 8 66 -8 22 -8 33
1 44 14 16 47 16 64 -1z m-674 -45 c2 -9 -3 -24 -12 -32 -13 -14 -16 -13 -26
6 -6 11 -9 27 -6 36 8 19 40 13 44 -10z m-73 -119 c7 -34 5 -39 -19 -48 -26
-9 -76 4 -76 21 0 4 -15 7 -34 7 -19 0 -39 3 -45 7 -6 3 -11 2 -11 -3 0 -15
-32 -24 -44 -12 -15 15 -48 12 -75 -6 -29 -20 -46 -6 -37 31 9 34 30 41 75 25
20 -7 59 -14 88 -14 28 -1 55 -5 59 -9 4 -4 14 3 22 14 8 12 29 27 46 34 36
15 40 11 51 -47z m-510 -28 c3 -6 -1 -13 -10 -16 -19 -8 -30 0 -20 15 8 14 22
14 30 1z m745 -60 c0 -13 -9 -22 -26 -26 -33 -8 -52 15 -27 34 26 19 53 15 53
-8z m-799 -35 c53 -27 55 -39 11 -78 -19 -18 -21 -18 -40 3 -14 16 -29 21 -53
18 -29 -3 -34 0 -37 20 -4 28 23 62 50 62 10 0 41 -11 69 -25z m704 14 c4 -5
4 -21 1 -34 -5 -18 -11 -22 -28 -17 -32 8 -40 24 -21 44 18 20 39 23 48 7z
m-470 -19 c10 -11 24 -20 30 -20 7 0 18 -7 25 -16 12 -13 7 -15 -41 -10 -62 6
-93 31 -62 53 22 17 27 16 48 -7z m-135 2 c0 -4 -9 -8 -19 -8 -11 0 -17 4 -15
8 3 4 12 8 20 8 8 0 14 -4 14 -8z m4100 -22 c0 -5 -7 -10 -15 -10 -8 0 -15 5
-15 10 0 6 7 10 15 10 8 0 15 -4 15 -10z m325 -19 c18 -2 -10 -19 -45 -28 -28
-7 -36 -15 -38 -36 -2 -15 -8 -28 -13 -28 -5 -1 -13 -2 -18 -3 -5 0 -13 -4
-17 -8 -4 -5 -13 -8 -21 -8 -10 0 -11 4 -1 19 6 10 17 17 23 14 17 -6 28 27
14 43 -9 11 -5 17 22 28 19 8 45 13 59 11 14 -2 29 -4 35 -4z m-148 -37 c-3
-3 -12 -4 -19 -1 -8 3 -5 6 6 6 11 1 17 -2 13 -5z m-3897 -19 c0 -9 -6 -12
-15 -9 -8 4 -12 10 -9 15 8 14 24 10 24 -6z m4095 -25 c48 0 60 -14 23 -24
-43 -11 -101 -6 -120 11 -17 15 -17 17 -1 35 16 18 17 18 35 -2 13 -14 32 -20
63 -20z m-4444 -10 c24 -18 27 -24 19 -46 -13 -34 -13 -34 9 -34 10 0 22 -7
25 -16 8 -20 10 -18 -36 -37 -38 -16 -38 -16 -38 8 0 13 5 27 10 30 17 10 11
25 -21 55 -20 18 -30 34 -26 44 8 21 23 20 58 -4z m155 -55 c4 -17 1 -32 -10
-44 -9 -10 -16 -27 -16 -38 0 -27 -9 -34 -31 -22 -26 13 -24 27 6 41 23 10 24
13 9 29 -12 14 -13 22 -4 38 15 29 38 26 46 -4z m242 -12 c-4 -22 -22 -20 -26
1 -2 10 3 16 13 16 10 0 15 -7 13 -17z m119 -23 c-3 -12 0 -20 7 -20 6 0 17
-9 23 -20 11 -16 9 -23 -9 -40 -43 -39 -81 -12 -52 36 7 12 10 31 7 43 -4 15
-1 21 12 21 12 0 16 -6 12 -20z m3624 -10 c30 0 39 -14 15 -23 -19 -7 -86 9
-100 24 -8 9 -3 10 23 5 18 -3 46 -6 62 -6z m-408 -67 c-7 -2 -21 -2 -30 0
-10 3 -4 5 12 5 17 0 24 -2 18 -5z"/>
<path d="M2490 3993 c14 -9 27 -20 30 -23 8 -10 40 -20 40 -12 0 10 -64 52
-80 52 -8 0 -4 -7 10 -17z"/>
<path d="M2450 3985 c14 -7 27 -11 30 -9 6 7 -22 24 -40 23 -9 0 -5 -6 10 -14z"/>
<path d="M1520 3639 c0 -5 5 -7 10 -4 6 3 10 8 10 11 0 2 -4 4 -10 4 -5 0 -10
-5 -10 -11z"/>
<path d="M2847 3453 c-10 -9 25 -32 40 -26 10 4 11 9 2 19 -12 15 -31 18 -42
7z"/>
<path d="M2895 3410 c3 -5 13 -10 21 -10 8 0 12 5 9 10 -3 6 -13 10 -21 10 -8
0 -12 -4 -9 -10z"/>
<path d="M2924 3369 c-3 -6 -1 -16 5 -22 8 -8 11 -5 11 11 0 24 -5 28 -16 11z"/>
<path d="M2860 3235 c0 -5 5 -17 10 -25 5 -8 10 -10 10 -5 0 6 -5 17 -10 25
-5 8 -10 11 -10 5z"/>
<path d="M3443 1827 c-1 -11 4 -25 11 -32 9 -10 12 -6 12 20 0 34 -21 45 -23
12z"/>
<path d="M3975 2821 c-3 -5 -1 -12 5 -16 5 -3 10 1 10 9 0 18 -6 21 -15 7z"/>
<path d="M3387 2723 c-4 -3 -7 -11 -7 -17 0 -6 5 -5 12 2 6 6 9 14 7 17 -3 3
-9 2 -12 -2z"/>
<path d="M1833 2645 c-11 -8 -22 -12 -24 -10 -3 2 -5 -14 -5 -37 -1 -26 2 -35
7 -27 5 8 9 10 9 4 0 -19 -15 -31 -37 -29 -13 1 -23 -3 -23 -7 0 -5 5 -9 11
-9 6 0 9 -6 6 -12 -2 -7 3 -21 11 -31 14 -16 14 -19 2 -27 -12 -7 -12 -10 3
-14 47 -16 52 -18 40 -23 -10 -4 -10 -10 2 -26 8 -12 15 -31 15 -44 0 -18 5
-21 28 -19 15 1 32 -2 39 -6 6 -5 34 -11 62 -13 47 -4 87 -25 159 -85 16 -14
15 -60 -3 -84 -14 -19 -70 -52 -60 -36 4 6 0 10 -8 10 -8 0 -36 12 -61 26 -59
33 -177 75 -189 67 -5 -3 -13 0 -17 7 -7 11 -12 10 -25 -3 -9 -10 -14 -17 -10
-17 11 0 -19 -26 -37 -33 -10 -3 -18 -13 -18 -21 0 -14 -32 -22 -111 -29 -28
-2 -36 0 -31 11 4 11 0 13 -15 8 -13 -4 -27 -1 -36 9 -22 21 -23 20 -19 -30 2
-25 8 -42 13 -39 5 3 9 -4 9 -15 0 -23 42 -59 79 -68 14 -3 32 -10 39 -16 27
-22 19 1 -13 35 -19 19 -31 38 -28 42 14 14 42 4 74 -24 19 -17 49 -37 67 -45
31 -14 33 -13 68 23 20 20 41 49 46 65 7 18 17 27 31 27 12 0 43 7 68 16 26
10 54 14 63 11 25 -10 19 -45 -11 -64 -48 -31 -55 -40 -33 -46 14 -4 18 -10
13 -23 -4 -11 -3 -15 4 -11 6 4 13 1 16 -5 2 -7 8 -10 12 -6 4 4 2 14 -4 22
-14 17 -14 17 62 41 32 11 73 32 90 46 28 24 32 33 32 76 0 33 -8 65 -24 96
-24 47 -80 117 -94 117 -14 0 -77 45 -77 55 0 6 -9 21 -20 35 -11 14 -20 36
-20 50 0 15 -9 31 -21 38 -11 7 -19 19 -16 26 5 13 -6 30 -44 63 -22 20 -27
21 -46 8z m17 -40 c0 -8 -7 -15 -15 -15 -8 0 -15 7 -15 15 0 8 7 15 15 15 8 0
15 -7 15 -15z m140 -174 c0 -5 -7 -11 -15 -15 -9 -3 -15 0 -15 9 0 8 7 15 15
15 8 0 15 -4 15 -9z"/>
<path d="M3365 2540 c-3 -5 1 -10 9 -10 9 0 16 5 16 10 0 6 -4 10 -9 10 -6 0
-13 -4 -16 -10z"/>
<path d="M3991 2484 c0 -11 3 -14 6 -6 3 7 2 16 -1 19 -3 4 -6 -2 -5 -13z"/>
<path d="M3126 2441 c-4 -7 -5 -15 -2 -18 9 -9 19 4 14 18 -4 11 -6 11 -12 0z"/>
<path d="M3394 2417 c3 -10 6 -23 6 -28 0 -5 5 -9 10 -9 14 0 12 13 -6 36 -14
17 -15 17 -10 1z"/>
<path d="M4001 2404 c0 -11 3 -14 6 -6 3 7 2 16 -1 19 -3 4 -6 -2 -5 -13z"/>
<path d="M3357 2383 c-4 -3 -7 -11 -7 -17 0 -6 5 -5 12 2 6 6 9 14 7 17 -3 3
-9 2 -12 -2z"/>
<path d="M3988 2367 c-5 -10 -8 -35 -7 -55 0 -35 1 -35 10 -12 6 13 9 38 7 55
-2 24 -4 26 -10 12z"/>
<path d="M3410 2339 c0 -11 5 -17 10 -14 6 3 10 13 10 21 0 8 -4 14 -10 14 -5
0 -10 -9 -10 -21z"/>
<path d="M4607 2353 c-4 -3 -99 -5 -212 -4 -113 1 -205 -1 -205 -4 0 -2 18
-14 40 -25 26 -13 40 -27 40 -40 0 -16 7 -20 37 -20 20 0 45 7 55 17 19 17 63
19 205 7 64 -6 75 -10 112 -43 23 -21 41 -45 41 -55 0 -9 5 -14 10 -11 6 3 10
16 10 29 0 42 29 57 111 54 l74 -3 3 46 3 46 -38 7 c-50 8 -278 8 -286 -1z"/>
<path d="M3380 2300 c0 -5 5 -10 11 -10 5 0 7 5 4 10 -3 6 -8 10 -11 10 -2 0
-4 -4 -4 -10z"/>
<path d="M3437 2273 c-11 -11 -8 -31 6 -36 10 -4 13 2 9 19 -5 26 -6 27 -15
17z"/>
<path d="M13 2263 c-10 -3 -13 -41 -13 -141 0 -76 4 -131 9 -124 9 14 271 28
271 14 0 -4 11 -19 24 -33 13 -14 26 -34 28 -45 2 -10 7 -18 11 -16 4 1 16 2
27 2 27 0 25 25 -2 44 -17 12 -19 19 -11 27 16 16 175 39 217 32 19 -3 42 -1
52 5 15 8 27 6 52 -10 22 -14 42 -18 61 -15 22 5 34 0 51 -19 17 -17 34 -24
62 -24 27 0 38 -4 38 -15 0 -9 -6 -12 -15 -9 -20 8 -19 -10 0 -26 14 -12 82
-17 91 -7 2 2 -2 18 -8 35 -11 29 -10 34 10 55 16 16 25 19 30 10 4 -7 13 -9
21 -4 7 5 25 2 42 -6 24 -12 28 -19 23 -39 -5 -17 -2 -24 9 -24 8 0 17 -5 19
-11 3 -9 9 -9 25 0 12 6 35 11 52 11 30 0 31 1 33 50 1 28 2 58 2 68 1 13 -11
19 -49 25 -27 5 -94 17 -148 29 -110 23 -183 21 -257 -7 -60 -22 -75 -21 -116
10 -19 15 -49 31 -67 36 -42 12 -177 19 -177 9 0 -29 -64 -12 -98 27 -9 11
-30 22 -45 25 -26 5 -28 3 -23 -18 7 -27 -5 -32 -24 -9 -7 8 -16 15 -21 15 -4
0 -19 11 -33 25 -14 14 -35 25 -48 25 -13 0 -36 7 -52 15 -30 16 -34 16 -53 8z
m82 -64 c-4 -5 -13 -9 -22 -9 -13 0 -13 3 -3 15 13 15 35 11 25 -6z"/>
<path d="M3382 2258 c2 -6 10 -14 16 -16 7 -2 10 2 6 12 -7 18 -28 22 -22 4z"/>
<path d="M3960 2248 c-12 -22 -12 -22 6 -6 10 10 15 20 12 24 -4 3 -12 -5 -18
-18z"/>
<path d="M3390 2220 c0 -5 5 -10 10 -10 6 0 10 5 10 10 0 6 -4 10 -10 10 -5 0
-10 -4 -10 -10z"/>
<path d="M3925 2209 c-4 -6 -5 -13 -2 -16 7 -7 27 6 27 18 0 12 -17 12 -25 -2z"/>
<path d="M3287 2159 c7 -7 15 -10 18 -7 3 3 -2 9 -12 12 -14 6 -15 5 -6 -5z"/>
<path d="M3440 2130 c0 -5 5 -10 10 -10 6 0 10 5 10 10 0 6 -4 10 -10 10 -5 0
-10 -4 -10 -10z"/>
<path d="M1666 1988 c3 -5 10 -6 15 -3 13 9 11 12 -6 12 -8 0 -12 -4 -9 -9z"/>
<path d="M2057 1992 c-5 -7 -13 -10 -18 -7 -10 7 -12 -5 -10 -45 2 -21 0 -22
-9 -10 -9 12 -10 11 -5 -6 4 -14 0 -24 -10 -28 -8 -3 -15 -1 -15 5 0 5 -13 15
-30 20 -16 6 -30 14 -30 19 0 4 -8 10 -19 13 -14 3 -17 0 -14 -14 4 -15 1 -18
-13 -13 -14 4 -12 -1 8 -19 25 -24 32 -55 14 -68 -11 -8 -18 -69 -8 -69 12 0
42 38 33 42 -5 2 0 21 10 43 12 28 18 34 18 20 1 -12 6 -26 12 -32 8 -8 8 -17
0 -32 -10 -17 -9 -20 4 -15 8 4 15 15 15 26 0 11 4 16 11 12 6 -3 9 -17 6 -30
-5 -29 20 -40 29 -12 5 16 8 18 15 7 5 -8 9 -9 9 -3 0 6 6 11 13 12 6 0 23 3
37 7 24 6 24 6 5 -7 -23 -15 -33 -42 -13 -35 7 2 12 10 10 17 -2 8 4 11 17 7
15 -3 22 1 27 17 7 21 7 21 15 1 6 -16 8 -13 8 14 1 26 -2 32 -15 27 -8 -3
-12 -2 -9 4 3 6 -1 11 -9 11 -43 4 -47 7 -48 48 -1 18 -6 31 -14 31 -7 0 -14
12 -16 28 -2 18 -6 23 -11 14z m13 -53 c0 -5 -7 -9 -15 -9 -15 0 -20 12 -9 23
8 8 24 -1 24 -14z m-33 -91 c-3 -8 -6 -5 -6 6 -1 11 2 17 5 13 3 -3 4 -12 1
-19z m70 6 c-3 -3 -12 -4 -19 -1 -8 3 -5 6 6 6 11 1 17 -2 13 -5z"/>
<path d="M1930 1981 c0 -5 9 -7 20 -4 11 3 20 7 20 9 0 2 -9 4 -20 4 -11 0
-20 -4 -20 -9z"/>
<path d="M4860 1948 c-25 -11 -58 -31 -73 -44 -16 -13 -35 -24 -43 -24 -22 0
-17 -16 20 -68 41 -57 68 -69 234 -109 l122 -29 0 79 c0 43 -4 76 -8 73 -4 -2
-14 -1 -22 4 -13 8 -13 13 -2 31 16 26 3 39 -39 39 -14 0 -34 8 -45 18 -33 31
-68 52 -84 51 -8 0 -35 -10 -60 -21z"/>
<path d="M1651 1939 c-13 -11 -21 -22 -17 -26 3 -4 16 4 27 16 27 29 21 35
-10 10z"/>
<path d="M1705 1920 c-4 -6 -15 -8 -24 -5 -11 3 -24 -2 -32 -12 -9 -11 -10
-14 -1 -9 6 4 12 3 12 -1 0 -10 -58 -63 -69 -63 -13 0 -29 -37 -21 -50 10 -15
1 -52 -11 -44 -5 3 -9 1 -9 -4 0 -14 32 -24 39 -13 4 5 11 -1 18 -15 6 -13 7
-24 2 -24 -5 0 -9 6 -9 13 0 19 -20 -15 -20 -36 0 -13 6 -16 25 -13 14 3 25 0
25 -6 0 -5 -7 -8 -15 -4 -8 3 -15 1 -15 -4 0 -6 5 -10 10 -10 6 0 10 -5 10
-11 0 -6 -6 -9 -14 -6 -9 4 -12 0 -9 -13 5 -18 -13 -37 -25 -25 -3 3 -1 10 7
14 10 6 9 10 -4 15 -9 3 -21 4 -26 0 -5 -3 -9 -1 -9 5 0 5 6 12 13 14 7 4 3 8
-10 12 -13 4 -23 11 -23 16 0 4 -9 7 -20 6 -12 -1 -20 -8 -20 -20 0 -10 -9
-30 -20 -44 -11 -14 -20 -33 -20 -42 -1 -13 -3 -13 -15 3 -13 17 -15 17 -15 3
0 -9 9 -23 21 -31 12 -8 18 -19 14 -26 -6 -9 -2 -9 13 -1 25 13 35 14 28 2 -3
-5 1 -11 9 -15 8 -3 15 0 15 7 0 8 4 7 10 -3 9 -13 11 -13 19 -1 14 21 60 25
67 6 3 -8 12 -15 20 -15 8 0 14 -7 14 -15 0 -8 5 -15 10 -15 6 0 10 9 10 21 0
13 4 18 12 13 7 -5 9 -2 5 9 -11 28 19 38 134 42 63 2 137 10 164 18 83 25
107 29 100 17 -10 -16 52 -16 69 1 6 5 16 9 24 9 10 0 10 -3 -2 -16 -17 -17
-21 -34 -8 -34 4 0 13 5 19 11 6 6 23 9 39 7 27 -3 27 -4 10 -21 -10 -10 -15
-24 -12 -33 6 -17 21 -14 85 14 20 9 41 17 46 18 22 2 51 19 71 41 11 12 24
20 27 16 4 -3 9 1 13 10 5 13 16 16 54 12 41 -3 50 -1 55 14 3 10 3 26 -1 35
-3 9 -2 16 4 16 15 0 23 30 12 48 -8 14 -10 11 -10 -13 -1 -25 -2 -27 -11 -12
-6 9 -15 15 -20 11 -6 -3 -21 6 -35 21 -22 24 -24 25 -24 6 0 -29 -22 -22 -39
12 -14 28 -14 29 -26 7 l-11 -21 -12 23 -11 23 0 -22 c-1 -33 -21 -28 -22 5
-1 15 -2 32 -4 37 -1 6 -3 18 -3 28 -2 21 -22 23 -22 2 0 -8 -5 -15 -11 -15
-6 0 -8 7 -5 16 3 8 2 12 -4 9 -6 -3 -10 -19 -10 -34 0 -16 -7 -34 -15 -41
-12 -10 -15 -10 -15 4 0 9 5 16 10 16 6 0 10 12 10 28 -1 25 -2 26 -14 9 -14
-18 -15 -17 -21 3 -5 16 -10 18 -19 11 -7 -6 -16 -8 -19 -4 -4 3 -7 1 -7 -5 0
-7 6 -12 14 -12 18 0 22 -6 30 -50 6 -28 5 -32 -4 -20 -10 13 -11 12 -6 -3 3
-10 6 -24 6 -30 0 -7 4 -6 10 3 9 13 11 13 19 0 7 -9 6 -19 -2 -28 -9 -11 -27
-13 -79 -7 -62 6 -68 5 -68 -12 0 -21 -39 -27 -53 -9 -5 7 -6 4 -3 -7 5 -16 1
-18 -39 -14 -24 2 -42 0 -39 -4 7 -11 -87 -3 -95 9 -10 15 -49 24 -56 12 -3
-5 -1 -10 4 -10 6 0 11 -4 11 -10 0 -5 -7 -10 -15 -10 -8 0 -15 6 -15 14 0 7
-11 16 -26 19 -18 3 -33 -3 -54 -24 -31 -32 -44 -26 -44 21 -1 18 -6 25 -21
25 -25 0 -35 13 -34 45 l1 25 7 -24 c4 -14 12 -26 19 -29 14 -4 16 14 2 23
-14 9 -12 25 3 20 16 -6 31 5 46 32 7 14 17 20 26 17 8 -4 15 -1 15 5 0 6 -3
10 -7 10 -28 -5 -36 3 -15 15 22 12 23 14 7 29 -15 16 -15 17 7 17 20 1 21 2
5 11 -16 9 -16 12 -2 26 34 34 -11 21 -57 -16 -24 -19 -25 5 -1 31 9 10 14 21
11 24 -3 3 -9 0 -13 -6z m-19 -99 c-4 -5 -15 -9 -26 -8 -10 1 -17 5 -14 9 3 4
11 5 19 1 8 -3 15 1 15 8 0 7 3 10 6 6 3 -3 3 -10 0 -16z m645 -45 c5 3 9 -4
9 -15 0 -12 -4 -21 -10 -21 -5 0 -10 4 -10 9 0 5 -2 15 -3 23 -2 7 -2 10 0 5
3 -4 9 -5 14 -1z m-621 -186 c0 -5 -4 -10 -9 -10 -6 0 -13 5 -16 10 -3 6 1 10
9 10 9 0 16 -4 16 -10z"/>
<path d="M1863 1882 c9 -10 17 -27 18 -38 0 -16 2 -16 10 4 9 25 -2 44 -31 50
-11 3 -11 -1 3 -16z"/>
<path d="M1845 1840 c4 -6 11 -8 16 -5 14 9 11 15 -7 15 -8 0 -12 -5 -9 -10z"/>
<path d="M3285 1830 c-3 -5 -1 -10 4 -10 6 0 11 5 11 10 0 6 -2 10 -4 10 -3 0
-8 -4 -11 -10z"/>
<path d="M3326 1832 c-3 -6 -1 -14 5 -17 15 -10 25 3 12 16 -7 7 -13 7 -17 1z"/>
<path d="M2191 1804 c0 -11 3 -14 6 -6 3 7 2 16 -1 19 -3 4 -6 -2 -5 -13z"/>
<path d="M1856 1795 c-3 -8 -17 -17 -31 -21 -14 -3 -25 -10 -25 -15 0 -5 -15
-9 -32 -9 -30 -1 -31 -2 -15 -14 9 -7 17 -18 17 -24 0 -16 28 -8 45 14 12 14
14 15 9 2 -4 -13 -1 -15 18 -11 32 7 68 25 68 34 0 4 -9 11 -21 14 -12 4 -18
12 -15 21 3 7 1 16 -3 19 -5 3 -11 -2 -15 -10z"/>
<path d="M3330 1789 c0 -5 5 -7 10 -4 6 3 10 8 10 11 0 2 -4 4 -10 4 -5 0 -10
-5 -10 -11z"/>
<path d="M2203 1765 c0 -11 4 -12 14 -4 7 6 13 13 13 15 0 2 -6 4 -13 4 -8 0
-14 -7 -14 -15z"/>
<path d="M3215 1746 c4 -48 11 -54 19 -20 5 18 2 32 -8 42 -13 13 -14 11 -11
-22z"/>
<path d="M3307 1743 c-4 -3 -7 -11 -7 -17 0 -6 5 -5 12 2 6 6 9 14 7 17 -3 3
-9 2 -12 -2z"/>
<path d="M2535 1720 c3 -5 8 -10 11 -10 2 0 4 5 4 10 0 6 -5 10 -11 10 -5 0
-7 -4 -4 -10z"/>
<path d="M1526 1705 c-3 -8 -1 -15 4 -15 6 0 10 7 10 15 0 8 -2 15 -4 15 -2 0
-6 -7 -10 -15z"/>
<path d="M2000 1685 c7 -8 17 -15 22 -15 5 0 3 7 -6 15 -8 8 -18 15 -22 15 -3
0 -1 -7 6 -15z"/>
<path d="M3460 1659 c0 -5 5 -7 10 -4 6 3 10 8 10 11 0 2 -4 4 -10 4 -5 0 -10
-5 -10 -11z"/>
<path d="M3350 1639 c0 -5 5 -7 10 -4 6 3 10 8 10 11 0 2 -4 4 -10 4 -5 0 -10
-5 -10 -11z"/>
<path d="M4580 1620 c0 -5 5 -10 10 -10 6 0 10 5 10 10 0 6 -4 10 -10 10 -5 0
-10 -4 -10 -10z"/>
<path d="M4180 1535 c0 -8 4 -15 10 -15 5 0 7 7 4 15 -4 8 -8 15 -10 15 -2 0
-4 -7 -4 -15z"/>
<path d="M4777 1518 c7 -39 18 -54 27 -39 4 6 2 11 -3 11 -6 0 -11 10 -10 23
0 19 1 20 8 4 6 -17 8 -18 20 -3 16 20 12 25 -23 32 -24 4 -25 3 -19 -28z"/>
<path d="M4970 1540 c0 -5 5 -10 11 -10 5 0 7 5 4 10 -3 6 -8 10 -11 10 -2 0
-4 -4 -4 -10z"/>
<path d="M3385 1490 c-9 -18 -14 -34 -11 -38 3 -3 6 0 6 7 0 7 4 10 9 7 9 -6
26 43 17 51 -2 3 -12 -9 -21 -27z"/>
<path d="M4960 1502 c0 -10 14 -31 31 -48 19 -18 28 -22 24 -11 -4 9 -11 17
-15 17 -5 0 -11 14 -15 30 -7 33 -25 41 -25 12z"/>
<path d="M840 1500 c0 -5 5 -10 10 -10 6 0 10 5 10 10 0 6 -4 10 -10 10 -5 0
-10 -4 -10 -10z"/>
<path d="M1155 1500 c-3 -5 -1 -10 4 -10 6 0 11 5 11 10 0 6 -2 10 -4 10 -3 0
-8 -4 -11 -10z"/>
<path d="M4620 1496 c0 -8 -5 -16 -11 -18 -5 -2 -7 -11 -4 -20 10 -26 35 -9
35 23 0 16 -4 29 -10 29 -5 0 -10 -6 -10 -14z"/>
<path d="M4525 1470 c-3 -5 -1 -10 4 -10 6 0 11 5 11 10 0 6 -2 10 -4 10 -3 0
-8 -4 -11 -10z"/>
<path d="M551 1438 c-1 -16 4 -28 9 -28 12 0 12 8 0 35 -8 18 -9 17 -9 -7z"/>
<path d="M1310 1443 c0 -21 -10 -28 -32 -24 -5 0 -8 -6 -8 -14 0 -9 10 -15 26
-15 16 0 23 4 18 11 -3 6 -1 15 6 19 9 6 10 12 1 26 -10 18 -10 18 -11 -3z"/>
<path d="M2944 1416 c-12 -13 -3 -49 15 -61 14 -8 14 -55 0 -55 -5 0 -8 -4 -5
-8 2 -4 7 -34 10 -65 6 -58 -4 -73 -32 -45 -9 9 -12 9 -12 0 0 -7 5 -12 10
-12 5 0 9 -3 9 -7 -6 -40 9 -53 33 -30 7 8 21 13 31 11 13 -2 17 5 17 27 0 21
-5 29 -17 29 -14 0 -15 2 -5 9 11 6 10 10 -3 15 -12 4 -14 10 -7 19 11 13 4
107 -7 107 -4 0 -8 15 -9 32 -3 39 -13 51 -28 34z"/>
<path d="M13 1403 c-7 -2 -13 -12 -13 -22 0 -19 29 -62 30 -46 1 6 3 25 6 43
4 32 1 35 -23 25z"/>
<path d="M206 1386 c-24 -18 -25 -58 -1 -62 28 -4 42 7 50 37 5 21 2 27 -14
32 -11 2 -27 0 -35 -7z"/>
<path d="M1802 1360 c-22 -21 -30 -36 -13 -25 5 3 12 1 16 -5 4 -6 12 -5 21 5
32 32 43 -16 18 -79 -5 -14 -4 -17 4 -12 8 4 12 0 12 -11 0 -15 2 -16 10 -3 6
10 6 16 0 18 -6 2 -10 11 -10 20 0 15 2 15 11 2 8 -11 12 -12 16 -2 2 6 8 12
13 12 10 0 -12 -72 -35 -117 -9 -18 -14 -37 -11 -42 11 -17 42 0 53 27 8 23 9
19 5 -20 -2 -27 -2 -48 2 -48 4 0 22 16 42 35 19 19 43 35 54 35 13 0 18 6 17
20 -1 11 -7 20 -13 20 -15 0 -24 23 -25 63 0 29 -1 30 -9 10 -12 -29 -50 -31
-50 -4 0 11 -6 21 -12 24 -10 3 -10 7 0 20 8 9 20 13 28 10 8 -3 14 0 14 7 0
10 3 10 15 0 12 -10 15 -9 15 6 0 16 2 17 10 4 6 -10 10 -11 10 -2 0 6 7 12
15 12 13 0 13 3 4 13 -14 15 -52 21 -44 6 8 -11 -6 -12 -24 0 -8 6 -24 6 -38
0 -15 -6 -23 -5 -23 2 0 7 -12 9 -34 5 -21 -4 -36 -2 -38 4 -2 6 -13 2 -26
-10z m28 -4 c0 -3 -4 -8 -10 -11 -5 -3 -10 -1 -10 4 0 6 5 11 10 11 6 0 10 -2
10 -4z m75 -56 c-8 -13 -35 -13 -35 0 0 6 6 17 13 24 10 12 13 12 20 0 4 -8 5
-19 2 -24z"/>
<path d="M1705 1360 c3 -5 16 -10 28 -9 21 0 21 1 2 9 -28 12 -37 12 -30 0z"/>
<path d="M4450 1336 c0 -9 5 -16 10 -16 6 0 10 4 10 9 0 6 -4 13 -10 16 -5 3
-10 -1 -10 -9z"/>
<path d="M630 1330 c0 -5 5 -10 11 -10 5 0 7 5 4 10 -3 6 -8 10 -11 10 -2 0
-4 -4 -4 -10z"/>
<path d="M1830 1312 c0 -14 -40 -57 -53 -57 -15 -1 -10 -25 9 -45 12 -12 14
-12 14 0 0 8 11 36 24 63 13 26 19 47 15 47 -5 0 -9 -4 -9 -8z"/>
<path d="M2024 1297 c-8 -18 -8 -24 3 -24 7 0 13 11 13 24 0 29 -2 29 -16 0z"/>
<path d="M336 1291 c-18 -7 -18 -8 -2 -14 9 -4 14 -11 11 -17 -10 -16 11 -12
25 5 6 8 9 19 5 25 -7 11 -12 12 -39 1z"/>
<path d="M2170 1269 c0 -5 5 -7 10 -4 6 3 10 8 10 11 0 2 -4 4 -10 4 -5 0 -10
-5 -10 -11z"/>
<path d="M237 1248 c-4 -13 -5 -32 -3 -43 2 -11 -1 -23 -6 -26 -5 -3 -11 -16
-14 -30 -3 -13 -8 -34 -11 -46 -4 -15 -1 -23 8 -23 8 0 25 -3 38 -7 16 -4 22
-2 18 4 -4 6 0 24 8 39 8 17 11 32 5 39 -5 6 -3 18 6 29 12 17 11 21 -4 32
-15 12 -14 14 13 15 l30 1 -32 10 c-18 6 -33 15 -33 19 0 19 -18 8 -23 -13z"/>
<path d="M2002 1233 c3 -28 28 -45 28 -20 0 9 -6 18 -12 20 -10 4 -10 6 0 6
18 1 15 21 -4 21 -11 0 -14 -8 -12 -27z"/>
<path d="M2050 1239 c0 -11 5 -17 10 -14 6 3 10 13 10 21 0 8 -4 14 -10 14 -5
0 -10 -9 -10 -21z"/>
<path d="M2880 1228 c0 -17 3 -19 9 -9 5 7 15 17 22 22 10 6 8 9 -8 9 -17 0
-23 -6 -23 -22z"/>
<path d="M3225 1230 c3 -5 8 -10 11 -10 2 0 4 5 4 10 0 6 -5 10 -11 10 -5 0
-7 -4 -4 -10z"/>
<path d="M717 1207 c-22 -27 -18 -52 8 -52 11 -1 25 -4 32 -8 8 -5 15 3 21 25
7 26 6 36 -6 46 -22 17 -34 15 -55 -11z"/>
<path d="M840 1210 c0 -5 5 -10 11 -10 5 0 7 5 4 10 -3 6 -8 10 -11 10 -2 0
-4 -4 -4 -10z"/>
<path d="M314 1198 c-4 -6 -2 -8 3 -5 6 4 11 -3 11 -16 2 -48 9 -68 37 -97 30
-31 63 -38 83 -18 8 8 14 4 22 -18 16 -43 50 -74 79 -74 19 0 22 -3 12 -9 -11
-7 -9 -11 9 -21 12 -6 24 -10 26 -7 9 9 -8 57 -21 57 -6 0 -19 17 -27 38 -13
34 -13 43 -1 65 7 15 18 27 23 27 6 0 10 6 10 14 0 27 -21 28 -47 2 -30 -31
-36 -31 -59 -9 -15 16 -19 16 -45 1 l-28 -16 -14 41 c-10 30 -20 43 -40 48
-16 4 -30 3 -33 -3z"/>
<path d="M2040 1180 c0 -16 2 -30 4 -30 2 0 6 14 8 30 3 17 1 30 -4 30 -4 0
-8 -13 -8 -30z"/>
<path d="M4505 1180 c3 -5 10 -10 16 -10 5 0 9 5 9 10 0 6 -7 10 -16 10 -8 0
-12 -4 -9 -10z"/>
<path d="M3031 1153 c0 -16 3 -22 6 -13 3 8 10 21 16 28 7 8 5 12 -7 12 -11 0
-16 -8 -15 -27z"/>
<path d="M840 1150 c0 -13 20 -13 40 0 12 8 9 10 -12 10 -16 0 -28 -4 -28 -10z"/>
<path d="M4390 1150 c0 -5 5 -10 10 -10 6 0 10 5 10 10 0 6 -4 10 -10 10 -5 0
-10 -4 -10 -10z"/>
<path d="M794 1136 c-4 -10 -2 -22 4 -28 8 -8 13 -7 18 6 4 10 2 22 -4 28 -8
8 -13 7 -18 -6z"/>
<path d="M4961 1114 c0 -11 3 -14 6 -6 3 7 2 16 -1 19 -3 4 -6 -2 -5 -13z"/>
<path d="M2786 1111 c-4 -7 -5 -15 -2 -18 9 -9 19 4 14 18 -4 11 -6 11 -12 0z"/>
<path d="M2930 1100 c0 -5 4 -10 9 -10 6 0 13 5 16 10 3 6 -1 10 -9 10 -9 0
-16 -4 -16 -10z"/>
<path d="M5100 1086 c0 -9 5 -16 10 -16 6 0 10 4 10 9 0 6 -4 13 -10 16 -5 3
-10 -1 -10 -9z"/>
<path d="M59 1068 c-7 -12 -18 -29 -26 -36 -21 -21 1 -52 37 -52 57 0 83 102
28 108 -19 2 -30 -3 -39 -20z"/>
<path d="M4884 1059 c2 -19 4 -40 5 -46 0 -7 8 -13 17 -13 12 0 14 7 9 33 -4
17 -13 38 -20 46 -11 11 -13 8 -11 -20z"/>
<path d="M4370 1062 c0 -5 7 -23 15 -38 l16 -29 -3 34 c-2 19 -9 36 -15 39 -7
2 -13 -1 -13 -6z"/>
<path d="M5010 1056 c0 -7 6 -19 14 -25 11 -9 15 -8 20 5 4 10 1 21 -6 26 -19
12 -28 10 -28 -6z"/>
<path d="M5066 1051 c-4 -6 -3 -11 3 -11 5 0 11 -10 13 -22 2 -13 6 -18 10
-13 3 6 1 21 -6 34 -9 15 -16 20 -20 12z"/>
<path d="M857 1015 c-4 -8 -2 -17 3 -20 6 -4 10 3 10 14 0 25 -6 27 -13 6z"/>
<path d="M3990 1010 c0 -19 3 -21 12 -12 9 9 9 15 0 24 -9 9 -12 7 -12 -12z"/>
<path d="M4646 988 c10 -63 26 -73 22 -14 -2 29 -8 51 -16 54 -9 3 -11 -7 -6
-40z"/>
<path d="M5024 988 c3 -13 6 -29 6 -37 0 -8 3 -12 6 -8 3 3 22 -3 41 -14 20
-11 37 -18 39 -16 2 2 -4 21 -15 42 -11 23 -21 33 -25 26 -11 -18 -26 -13 -26
9 0 12 -7 20 -16 20 -12 0 -15 -6 -10 -22z"/>
<path d="M4543 946 c-14 -7 -25 -23 -29 -43 -5 -24 -15 -37 -39 -49 -18 -8
-37 -26 -44 -40 -10 -22 -8 -26 15 -34 14 -6 29 -8 34 -5 5 3 10 0 12 -7 7
-20 30 3 25 24 -4 12 -1 18 6 15 7 -2 11 -15 10 -28 -3 -40 5 -53 22 -39 11 9
13 23 9 52 -5 30 -3 42 11 51 14 11 16 22 10 60 -8 54 -12 57 -42 43z"/>
<path d="M4940 931 c0 -5 7 -12 16 -15 14 -5 15 -4 4 9 -14 17 -20 19 -20 6z"/>
<path d="M4885 920 c-3 -5 -3 -15 0 -20 4 -6 1 -17 -5 -25 -16 -19 -5 -34 20
-28 11 3 20 0 20 -6 0 -6 7 -11 15 -11 9 0 15 -9 15 -24 0 -13 6 -26 13 -29
18 -6 -26 -63 -47 -59 -11 2 -18 -7 -22 -27 -4 -17 -11 -29 -16 -28 -6 1 -13
-4 -15 -10 -3 -8 4 -13 15 -13 11 0 23 7 26 16 4 10 13 13 25 9 12 -3 21 0 25
10 9 25 29 6 23 -22 -3 -16 1 -27 10 -30 17 -7 37 21 39 52 3 74 5 86 14 80 6
-3 10 1 10 10 0 15 -2 15 -22 1 -32 -23 -40 -20 -37 12 1 15 -1 35 -5 44 -10
22 1 39 19 31 21 -8 18 11 -4 31 -19 17 -21 17 -42 -3 -26 -24 -41 -27 -38 -8
2 18 -12 57 -22 57 -4 0 -11 -4 -14 -10z"/>
<path d="M470 910 c-9 -6 -10 -10 -3 -10 6 0 15 5 18 10 8 12 4 12 -15 0z"/>
<path d="M4703 903 c-33 -6 -40 -46 -14 -79 23 -29 27 -59 11 -69 -8 -5 -7
-11 1 -21 6 -8 9 -23 6 -33 -3 -12 4 -28 19 -42 15 -14 24 -18 24 -9 0 7 -7
18 -16 25 -13 9 -15 18 -7 41 5 16 13 28 16 27 9 -4 47 34 47 47 0 6 5 10 10
10 6 0 10 5 10 11 0 5 -4 7 -10 4 -5 -3 -10 1 -10 10 0 11 -9 7 -30 -15 -16
-17 -30 -28 -31 -25 -1 3 -1 14 -1 25 0 70 1 72 28 66 17 -5 23 -3 19 4 -3 5
-13 10 -21 10 -8 0 -14 5 -14 10 0 6 -3 9 -7 9 -5 -1 -18 -4 -30 -6z"/>
<path d="M5098 871 c-13 -18 -15 -29 -7 -44 15 -27 31 -7 27 34 l-3 34 -17
-24z"/>
<path d="M3985 868 c-8 -21 1 -38 21 -38 18 0 18 11 0 36 -13 17 -15 18 -21 2z"/>
<path d="M4611 866 c-10 -12 -9 -20 5 -41 14 -22 15 -32 6 -58 -11 -32 -11
-41 3 -84 16 -49 23 -19 20 80 -1 56 -3 105 -4 110 -2 12 -18 8 -30 -7z"/>
<path d="M4359 863 c-9 -102 3 -131 16 -40 5 32 4 47 -4 47 -6 0 -11 -3 -12
-7z"/>
<path d="M2411 814 c0 -11 3 -14 6 -6 3 7 2 16 -1 19 -3 4 -6 -2 -5 -13z"/>
<path d="M4866 805 c-3 -9 1 -18 10 -22 19 -7 26 0 18 21 -8 20 -20 21 -28 1z"/>
<path d="M5090 773 c0 -12 5 -25 10 -28 13 -8 13 15 0 35 -8 12 -10 11 -10 -7z"/>
<path d="M3916 753 c-6 -14 -5 -15 5 -6 7 7 10 15 7 18 -3 3 -9 -2 -12 -12z"/>
<path d="M4436 746 c8 -24 22 -36 45 -36 18 0 29 -20 29 -50 0 -11 9 -19 24
-22 20 -4 22 -1 18 16 -3 12 -20 35 -39 52 -18 17 -33 35 -33 41 0 6 -11 13
-25 15 -22 5 -25 3 -19 -16z"/>
<path d="M4253 753 c-7 -3 -13 -13 -13 -23 0 -13 5 -17 19 -13 13 3 24 -4 36
-25 12 -20 23 -28 36 -25 11 3 19 0 19 -8 0 -7 3 -9 6 -6 8 8 -37 77 -50 77
-5 0 -17 6 -25 14 -9 7 -22 11 -28 9z"/>
<path d="M4046 732 c-2 -4 2 -18 10 -32 l13 -25 1 33 c0 29 -12 43 -24 24z"/>
<path d="M4015 710 c-3 -5 1 -10 10 -10 9 0 13 5 10 10 -3 6 -8 10 -10 10 -2
0 -7 -4 -10 -10z"/>
<path d="M4130 706 c0 -8 -5 -16 -11 -18 -7 -2 -10 -9 -8 -16 3 -9 10 -8 26 3
13 9 20 22 17 30 -8 19 -24 19 -24 1z"/>
<path d="M5098 699 c-10 -6 -18 -15 -18 -21 0 -6 -7 -19 -15 -28 -21 -23 -27
-94 -11 -116 13 -17 14 -16 25 4 6 12 9 33 5 46 -4 17 1 31 16 46 27 27 25 85
-2 69z"/>
<path d="M4020 661 c0 -11 5 -23 10 -26 6 -3 10 3 10 14 0 11 -4 23 -10 26 -5
3 -10 -3 -10 -14z"/>
<path d="M4400 670 c0 -5 5 -10 10 -10 6 0 10 5 10 10 0 6 -4 10 -10 10 -5 0
-10 -4 -10 -10z"/>
<path d="M4767 638 c-32 -41 -32 -44 -11 -66 15 -14 15 -17 0 -27 -9 -7 -16
-17 -16 -23 0 -6 -6 -13 -12 -15 -7 -3 -3 -6 10 -6 16 -1 22 5 22 19 0 20 11
26 24 13 4 -4 17 -8 29 -8 12 0 26 -10 33 -23 10 -19 13 -20 23 -8 17 20 4 56
-20 56 -30 0 -22 20 9 21 24 2 25 2 4 6 -14 3 -22 10 -19 18 3 7 -7 27 -22 45
l-27 33 -27 -35z"/>
<path d="M4435 654 c-6 -2 -9 -20 -7 -40 3 -26 9 -34 21 -32 9 2 16 9 15 16
-1 6 -2 23 -2 37 -2 25 -7 28 -27 19z"/>
<path d="M3992 611 c-14 -8 -52 -79 -52 -96 0 -5 -14 -22 -32 -37 -39 -31 -36
-39 12 -29 26 5 35 12 36 28 3 49 15 71 44 81 16 6 30 15 30 19 -1 18 -27 41
-38 34z"/>
<path d="M4860 610 c0 -5 4 -10 9 -10 6 0 13 5 16 10 3 6 -1 10 -9 10 -9 0
-16 -4 -16 -10z"/>
<path d="M4560 592 c0 -16 6 -20 30 -20 17 1 30 6 30 14 0 18 -17 27 -23 12
-3 -10 -7 -10 -20 1 -15 12 -17 11 -17 -7z"/>
<path d="M4211 570 c0 -33 1 -34 10 -11 6 16 6 28 -1 35 -7 7 -10 -1 -9 -24z"/>
<path d="M4970 585 c0 -9 5 -15 11 -13 6 2 11 8 11 13 0 5 -5 11 -11 13 -6 2
-11 -4 -11 -13z"/>
<path d="M4927 573 c-4 -3 -7 -11 -7 -17 0 -6 5 -5 12 2 6 6 9 14 7 17 -3 3
-9 2 -12 -2z"/>
<path d="M4641 527 c-13 -26 -27 -47 -32 -47 -5 0 -9 -4 -9 -10 0 -5 10 -10
23 -10 18 0 25 9 36 45 19 64 8 77 -18 22z"/>
<path d="M4560 536 c0 -9 5 -16 10 -16 6 0 10 4 10 9 0 6 -4 13 -10 16 -5 3
-10 -1 -10 -9z"/>
<path d="M4111 524 c0 -11 3 -14 6 -6 3 7 2 16 -1 19 -3 4 -6 -2 -5 -13z"/>
<path d="M4906 509 c-19 -19 -19 -19 13 -19 25 0 32 4 29 17 -4 24 -20 25 -42
2z"/>
<path d="M5031 504 c0 -11 3 -14 6 -6 3 7 2 16 -1 19 -3 4 -6 -2 -5 -13z"/>
<path d="M4795 480 c-3 -5 -1 -10 4 -10 6 0 11 5 11 10 0 6 -2 10 -4 10 -3 0
-8 -4 -11 -10z"/>
<path d="M3098 435 c-12 -25 -26 -45 -31 -45 -4 0 -6 -4 -3 -9 3 -5 -1 -22 -9
-37 -8 -16 -15 -34 -15 -40 0 -6 -16 -43 -35 -84 -20 -40 -34 -74 -32 -77 7
-6 105 151 125 200 10 23 17 54 17 69 -1 15 5 30 12 32 7 3 13 12 13 21 0 29
-20 15 -42 -30z"/>
<path d="M3796 458 c-20 -31 -12 -83 11 -74 8 3 19 6 24 6 13 0 10 41 -5 69
l-13 24 -17 -25z"/>
<path d="M4985 471 c-3 -5 -1 -12 5 -16 12 -7 30 2 30 16 0 12 -27 12 -35 0z"/>
<path d="M4020 421 c0 -5 -26 -12 -57 -15 -100 -12 -113 -16 -113 -38 0 -12
-8 -22 -20 -25 -12 -3 -19 -8 -18 -12 2 -3 10 -18 17 -33 11 -21 22 -28 42
-28 37 0 44 15 23 47 -16 26 -16 27 6 45 22 18 45 22 107 18 44 -2 55 6 40 30
-12 21 -27 27 -27 11z m-145 -90 c3 -5 1 -12 -5 -16 -5 -3 -10 1 -10 9 0 18 6
21 15 7z"/>
<path d="M4713 405 c0 -9 4 -14 9 -13 5 2 10 8 10 13 0 5 -5 11 -10 13 -5 1
-9 -4 -9 -13z"/>
<path d="M4128 340 c-3 -19 -1 -29 6 -27 12 4 16 57 5 57 -4 0 -9 -14 -11 -30z"/>
<path d="M3737 343 c-4 -3 -7 -12 -7 -20 0 -15 26 -18 34 -4 7 11 -18 33 -27
24z"/>
<path d="M4063 283 c-13 -2 -23 -9 -23 -15 0 -6 11 -8 25 -6 13 3 22 2 20 -2
-2 -4 28 -10 68 -13 127 -9 206 19 100 35 -53 9 -106 1 -97 -13 9 -15 -13 -10
-26 6 -12 15 -24 16 -67 8z"/>
<path d="M2255 210 c3 -5 10 -10 16 -10 5 0 9 5 9 10 0 6 -7 10 -16 10 -8 0
-12 -4 -9 -10z"/>
<path d="M2520 110 c0 -41 19 -78 44 -84 23 -6 77 10 111 32 l20 14 -20 -8
c-56 -19 -67 -17 -101 20 -19 20 -34 41 -34 47 0 5 -4 9 -10 9 -5 0 -10 -13
-10 -30z"/>
<path d="M3748 43 c12 -2 30 -2 40 0 9 3 -1 5 -23 4 -22 0 -30 -2 -17 -4z"/>
<path d="M3818 43 c7 -3 16 -2 19 1 4 3 -2 6 -13 5 -11 0 -14 -3 -6 -6z"/>
</g>
</svg>
